<svg style="display: none;" xmlns="http://www.w3.org/2000/svg">
	<symbol id="icon-facebook" width="10" height="20" viewBox="0 0 10 20">
		<g>
			<path
				d="M6.37001 19.6099V9.88888H9.20402L9.57959 6.53897H6.37001L6.37482 4.86231C6.37482 3.9886 6.4625 3.52045 7.78782 3.52045H9.55953V0.170166H6.72511C3.32053 0.170166 2.1222 1.79523 2.1222 4.52808V6.53935H0V9.88926H2.1222V19.6099H6.37001Z"
				fill="white" />
		</g>
	</symbol>
	<symbol id="icon-insta" width="16" height="16" viewBox="0 0 16 16">
		<g>
			<path
				d="M8.00179 3.7657C5.73162 3.7657 3.9005 5.5035 3.9005 7.65796C3.9005 9.81242 5.73162 11.5502 8.00179 11.5502C10.2719 11.5502 12.1031 9.81242 12.1031 7.65796C12.1031 5.5035 10.2719 3.7657 8.00179 3.7657ZM8.00179 10.1884C6.53475 10.1884 5.33542 9.05362 5.33542 7.65796C5.33542 6.2623 6.53118 5.12748 8.00179 5.12748C9.47239 5.12748 10.6682 6.2623 10.6682 7.65796C10.6682 9.05362 9.46882 10.1884 8.00179 10.1884ZM13.2274 3.60649C13.2274 4.11123 12.7991 4.51434 12.2708 4.51434C11.739 4.51434 11.3142 4.10784 11.3142 3.60649C11.3142 3.10514 11.7426 2.69864 12.2708 2.69864C12.7991 2.69864 13.2274 3.10514 13.2274 3.60649ZM15.9438 4.52789C15.8831 3.31178 15.5904 2.23455 14.6516 1.34702C13.7165 0.459488 12.5814 0.181712 11.2999 0.120736C9.97925 0.0495984 6.02075 0.0495984 4.70006 0.120736C3.4222 0.178324 2.28712 0.4561 1.34835 1.34363C0.409593 2.23116 0.120468 3.30839 0.0562186 4.52451C-0.0187395 5.77789 -0.0187395 9.53464 0.0562186 10.788C0.116899 12.0041 0.409593 13.0814 1.34835 13.9689C2.28712 14.8564 3.41863 15.1342 4.70006 15.1952C6.02075 15.2663 9.97925 15.2663 11.2999 15.1952C12.5814 15.1376 13.7165 14.8598 14.6516 13.9689C15.5868 13.0814 15.8795 12.0041 15.9438 10.788C16.0187 9.53464 16.0187 5.78128 15.9438 4.52789ZM14.2376 12.1329C13.9592 12.7968 13.4202 13.3083 12.717 13.5759C11.664 13.9723 9.16542 13.8808 8.00179 13.8808C6.83815 13.8808 4.33597 13.9689 3.28656 13.5759C2.58695 13.3117 2.04796 12.8002 1.76598 12.1329C1.34835 11.1336 1.44473 8.76229 1.44473 7.65796C1.44473 6.55363 1.35192 4.17898 1.76598 3.18305C2.04439 2.5191 2.58338 2.00758 3.28656 1.73997C4.33954 1.34363 6.83815 1.43509 8.00179 1.43509C9.16542 1.43509 11.6676 1.34702 12.717 1.73997C13.4166 2.00419 13.9556 2.51571 14.2376 3.18305C14.6552 4.18237 14.5588 6.55363 14.5588 7.65796C14.5588 8.76229 14.6552 11.1369 14.2376 12.1329Z"
				fill="white" />

		</g>
	</symbol>
	<symbol id="icon-twitter" width="19" height="15" viewBox="0 0 19 15">
		<g>
			<path fill-rule="evenodd" clip-rule="evenodd"
				d="M8.90958 4.42077L8.86995 3.80247C8.75115 2.20003 9.79388 0.736367 11.4438 0.16862C12.051 -0.033286 13.0805 -0.0585242 13.7537 0.118143C14.0177 0.193858 14.5193 0.446165 14.8756 0.673309L15.5224 1.0897L16.2352 0.875215C16.6312 0.761605 17.1592 0.572356 17.3967 0.446165C17.6211 0.332631 17.8191 0.269498 17.8191 0.307392C17.8191 0.52188 17.3307 1.25371 16.9216 1.65745C16.3672 2.22527 16.5256 2.27575 17.6475 1.89717C18.3207 1.68269 18.3338 1.68269 18.2019 1.92241C18.1226 2.0486 17.7135 2.49024 17.2779 2.89397C16.5387 3.58799 16.4992 3.6637 16.4992 4.2441C16.4992 5.13995 16.0504 7.00735 15.6016 8.02938C14.77 9.94726 12.9881 11.9282 11.2062 12.925C8.69839 14.3256 5.35891 14.6789 2.54748 13.8587C1.61034 13.5811 0 12.8745 0 12.7484C0 12.7105 0.488346 12.66 1.08236 12.6475C2.32308 12.6222 3.5638 12.2941 4.61975 11.7137L5.33257 11.31L4.51415 11.045C3.35261 10.6664 2.30987 9.79583 2.04593 8.9757C1.96667 8.71074 1.99309 8.69808 2.73225 8.69808L3.49783 8.6855L2.85105 8.3953C2.08547 8.02938 1.38594 7.41109 1.04274 6.78021C0.79192 6.32599 0.475215 5.17777 0.5676 5.08947C0.59394 5.05165 0.871175 5.12729 1.18796 5.22824C2.09868 5.54368 2.21749 5.46797 1.68951 4.93804C0.699535 3.97914 0.39596 2.55329 0.871175 1.20324L1.09557 0.597594L1.96667 1.41772C3.74865 3.07064 5.84733 4.05485 8.24959 4.34506L8.90958 4.42077Z"
				fill="white" />
		</g>
	</symbol>
</svg>